<svg version="1.0" xmlns="http://www.w3.org/2000/svg" width="78" height="64" viewBox="0 0 2021 1661"><path d="M713.9 139.8c-31.3 37.6-34.9 42.5-34.9 48.5 0 1.6.2 1.7 3.1.2 1.7-.9 3.3-1.5 3.5-1.3.2.3-.1 1.9-.6 3.7l-.9 3.3 3.9-.6c3.9-.6 3.9-.6 3 2-1.4 3.6-1.3 3.6 2 2.9 2.9-.6 3-.5 3 2.9 0 4.1.2 4.2 3.6 2l2.5-1.7-.7 4.1c-.6 3.9-.5 4.1 1.7 3.5 1.3-.3 3-1 3.7-1.6 1.5-1.2 1.6.2.2 3.7-1.1 2.9 0 3.3 4.3 1.7 2.4-.9 2.5-.9 1.7 1.9-1 3.6-.6 4 3.2 2.9l3-.8-.6 4c-.6 4-.6 4 1.6 2.5 3.2-2.3 3.8-2 3.8 1.9s.2 4 3 2.3c2.6-1.6 3.1-.8 2.1 3-1.1 3.5-1 3.6 3.7 2.3l3.2-.8-1 3.6c-1 3.6-1.4 3.5 5 1.5 1.8-.6 1.8-.3 1 2.7-1.2 4-.7 4.6 2.5 3.1 2.4-1.1 2.5-1 2.5 2.3 0 3.9-.1 3.9 3.5 2.5 2.5-1 2.6-.9 1.9 2.5l-.6 3.4 3.3-.9a14 14 0 013.6-.7c.1.2-.2 1.8-.7 3.6-.8 3-.8 3.3 1 2.7l4-1.2c1.8-.6 1.8-.3 1 2.7-1.1 3.9-.8 4.4 1.8 3 3-1.6 3.2-1.4 3.2 2.4 0 3.3.1 3.4 2.6 2.5 3.6-1.4 3.6-1.4 2.9 2.1l-.7 3.2 3.6-.7c4-.8 4-.8 2.6 2.8-1.1 2.9-.8 3 3.8 1.7 3.1-.9 3.2-.9 2.6 1.7-1.2 5.2-1.3 5.2 3.5 3.7 2.3-.7 2.4-.6 1.8 2.8-.5 3.5-.5 3.6 1.9 2.6 4-1.5 4.6-1.1 3.9 2.1-.4 1.6-.5 3-.2 3 2.4 0 6.7-2.7 8.1-5.1 1-1.7 1.9-2.9 2.1-2.7.2.2.6 4.1.9 8.8l.6 8.8c0 .2 1.4.1 3-.3 2.9-.6 3-.6 2 2-1.4 3.7-1.4 3.7 2 3 2.9-.6 3-.5 3 2.9v3.7l3-1.6 3-1.6-.6 4.2-.7 4.2 3.2-2.4c1.7-1.3 4.8-4.4 6.7-6.9l3.6-4.5-.5-18c-.5-19.5.2-27.6 3.4-37.1a75.6 75.6 0 0123-32.4l4.8-3.8-53.2-29.3-58.7-32.2-8.5-4.7c-3.9-2.3-11.3-6.4-20-11l-7-3.8-5.6 6.6zM1301.5 136.9a38483.8 38483.8 0 00-146 80.4c-31 17.1-32.1 17.7-31 17.9l23 .3h22l8.1 3.1c20.1 7.8 32.8 20.2 42.9 42.1 4 8.6 5.2 10.4 7.8 11.2 4 1.5 3.9 1.5 3.2-1.9-.7-3.3-.1-3.6 4-2 2.6 1 2.6.9 1.9-2.6-.6-3.5-.6-3.6 1.7-2.9 4.8 1.5 4.7 1.5 3.5-3.7-.6-2.6-.5-2.6 2.6-1.7 4.6 1.3 4.9 1.2 3.8-1.7-1.4-3.6-1.4-3.6 2.6-2.8l3.6.7-.7-3.2c-.7-3.5-.7-3.5 2.9-2.1 2.5.9 2.6.8 2.6-2.5 0-3.8.2-4 3.2-2.4 2.6 1.4 2.9.9 1.8-3-.8-3-.8-3.3 1-2.7l4 1.2c1.8.6 1.8.3 1-2.7a14 14 0 01-.7-3.6c.2-.1 1.8.2 3.6.7l3.3.9-.6-3.4c-.7-3.4-.6-3.5 1.9-2.5 3.6 1.4 3.5 1.4 3.5-2.5 0-3.3.1-3.4 2.5-2.3 3.2 1.4 3.7.9 2.6-3-1.1-3.7-.4-3.9 4-1.6 3 1.5 3.1 1.5 2.5-.5-1.8-6.5-2-6.1 1.6-5 4.7 1.3 4.8 1.2 3.7-2.3-1-3.8-.7-4.3 1.9-2.9 3 1.6 3.2 1.4 3.2-2.4 0-3.9.6-4.2 3.8-1.9 2.2 1.5 2.2 1.5 1.6-2.5l-.6-4 3 .8c3.8 1.1 4.2.7 3.2-2.9-.8-2.8-.7-2.8 1.7-1.9 4.3 1.6 5.4 1.2 4.3-1.7-1.4-3.5-1.3-4.9.3-3.7.6.6 2.3 1.3 3.6 1.6 2.2.5 2.3.4 1.7-3.4-.6-4.1.3-5 2.4-2.4 2 2.4 3 1.7 3-2.1 0-3.4.1-3.5 3-2.9 3.3.7 3.4.7 2-2.9-.9-2.6-.9-2.6 2.9-2l3.9.6-.8-3.6c-.9-4.1-.9-4.1 3-2.1 2.9 1.5 3 1.5 3-1 0-3-2.1-8.5-4.1-10.5-.8-.8-3.2-3.8-5.4-6.5a283 283 0 00-12.5-15.1 470.5 470.5 0 00-17.3-20.7c-1.1-1.4-2-1.2-8.2 2.2z"/><path d="M978.5 178a72 72 0 00-25.1 11.4c-8.2 6.1-13.9 13.7-21.1 28a76.3 76.3 0 01-13 20.8c-3 2.7-15 6.9-21.8 7.5-10 .9-18.4-2.9-22.2-10-.9-1.8-.2-10.8 1.2-14 1.2-2.8-.9-2-7.5 3a61.9 61.9 0 00-22.5 34c-1.2 4.8-1.5 10.7-1.3 27.5.3 24.2.5 23.6-8.2 33.1s-19.3 14.1-27 11.8a16.7 16.7 0 01-10.6-12.8c-.3-2.3-1-4.1-1.4-3.8-1.7 1-7 16.4-8.1 23.5a44 44 0 000 16.2c1.4 10.8 4.5 18.1 13.5 31.7 11.6 17.5 13.4 23.7 10.2 35.6-3.1 11.6-8 18.5-15.5 21.8-6.1 2.7-10.1 1.7-16.2-4-5.6-5.2-5.6-5.2-3.4 7a59.9 59.9 0 0020.7 37.4c2.9 2.4 11.6 7.6 19.3 11.6a95.3 95.3 0 0118.1 11.2 37 37 0 019.3 21.4c2.8 17.2-8.2 29.2-21.9 23.7-4.6-1.8-4.8-1.6-1.8 2.7a71 71 0 0023.9 21.7c11.9 6.1 18.1 6.9 47.4 6.1 9.9-.2 13.9 0 16.6 1.2a54 54 0 0119.2 19.1c6.1 12.4 1.5 23.7-10.3 25.3-2.2.3-4 .9-4 1.3 0 1.2 12.2 6.3 18.5 7.6a77.4 77.4 0 0026.7.3 70.8 70.8 0 0024.8-11.8c15.5-10.3 20.5-12.5 27.5-12.4 10.9.1 21.7 4.5 27.8 11.2 6.6 7.3 6.4 14.7-.4 21.7l-4.3 4.4h4.4c6.3 0 18.8-3.4 25.7-6.9 12.7-6.4 20.7-15.3 29.6-32.9 10.4-20.6 14.5-24.6 28.6-27.8 12.5-2.8 23.4-.2 27.4 6.6 1.9 3.2 2.2 10.5.7 14.6-.6 1.5-.8 2.9-.6 3.1.8.9 9-5.4 14.8-11.4 6.2-6.4 11-13.9 14.1-22.3 1.9-5 2.1-7.8 2.2-29.5 0-16.7.5-24.9 1.3-26.9 1.7-4 14.9-16.8 19.5-19 10.1-4.7 19.7-2.4 23.6 5.7 1.2 2.4 2.1 5.7 2.1 7.3.1 2.7.1 2.8 1.5 1a62.2 62.2 0 00-4.5-68.6c-9.3-13.8-13.4-22.2-13.2-27.5.6-15.3 10.1-31.3 19.7-33.1a17 17 0 0114.6 5.7c3.9 5.5 4.2 4 2.3-9.5a76.3 76.3 0 00-7.6-20.5c-6.9-11.4-14.2-17.4-32.6-26.7-17.6-8.8-21.9-12.9-25.1-23.7-3.3-11.1-3.6-14.6-1.7-20.8 3.4-11.4 10.6-15.3 21.4-11.6l4.3 1.5-2.1-3.5a61.5 61.5 0 00-31-25.5 56.6 56.6 0 00-22.7-3.2 229 229 0 01-31.9-.2c-6.1-1.5-15.7-9.8-20.9-18.3-3.6-5.8-4.6-15-2.1-19.6a18 18 0 0111.8-7.7c4.6-.6 4.2-1.6-1.7-4.3a63.5 63.5 0 00-36.3-5.1c-10.1 1.8-17.3 5.1-31.7 14.5-16.9 11-20.2 11.9-33.5 9-21-4.6-29.8-21.1-17.3-32.5l3.7-3.4-5 .1c-2.7.1-6.7.5-8.9.9zM227.8 205.2c2.6 4.4 24 41.4 45.7 79.3L294 320c1.5 2.5 9.8 16.6 18.3 31.5 15.1 26.3 18.8 32.9 39.2 68a11240.4 11240.4 0 0151 88.5l18.2 31.5 32.1 55.5 29.7 51.5 7.3 12.5 16.1 27.8a532.2 532.2 0 0114.1 25.3c0 .5 9 .9 20.5.9 11.3 0 20.5-.3 20.5-.8 0-.4-.6-1.6-1.4-2.7-.7-1.1-2.3-3.6-3.3-5.5l-9.3-16-31.3-54-46.7-81-20.5-35.5a26471.4 26471.4 0 01-73-126.5l-13-22.5L346 340a11688 11688 0 01-59-102.6c0-.2 94-.4 208.9-.4h208.9l1-2.9c1.3-3.7.8-4.1-3.1-3l-3.4.9c-.1 0 .2-1.4.7-3.1l.9-3.1-4.3.6-4.3.7.5-3c.4-3 .3-3-2.7-2.1l-3.1.9v-6.5c0-7-.1-7.1-6.1-5.2-4.7 1.3-5.3.9-3.9-2.6 1-2.7.9-2.7-2-2.1-2.3.5-3 .3-3-.9 0-2-.4-2-4.2 0l-3.1 1.6.5-2.6.5-2.6H225.8l2 3.2zM1362.8 204.6l.5 2.6-3.1-1.6c-3.9-2-4.2-2-4.2 0 0 1.2-.6 1.5-2.6 1-2.6-.7-2.6-.6-2 2.5.7 3.4.6 3.4-7.8 1.3l-2.6-.6v13.1l-3.1-.9c-3-.9-3.1-.9-2.7 2.1l.5 3-4.3-.7-4.3-.6.9 3.1c.5 1.7.8 3.1.7 3.1l-3.5-.9c-2.8-.8-3.2-.7-3.2.9 0 1 .3 2.5.6 3.4.6 1.5 19.9 1.6 209.5 1.6 114.9 0 208.9.2 208.9.5l-10.3 18.2-22.2 38.3-19 33-18.8 32.5-20.2 35-11 19-7.5 13-7 12a8191.8 8191.8 0 01-45.5 79l-28 48.5-20.5 35.5-24.2 42-27.7 47.9-12.1 21.3c0 .2 9.1.2 20.1.1l20.2-.3 14.4-25 25.5-44a3778.1 3778.1 0 0021.1-36.5l7-12a3308.8 3308.8 0 0136.7-63.3l8.6-15.3c10.6-18.3 11.9-20.4 14.5-25.2l7.4-12.7a6959.2 6959.2 0 0046.7-81.1l17.3-29.9 95.2-164.8c.2-.4-98.5-.7-219.5-.7h-219.9l.5 2.6z"/><path d="M1193.4 285.1c-1.5 1.7-1.9 3.6-1.8 9.3.1 9.9 3.1 17.5 8.4 21 2.2 1.4 4.2 2.6 4.6 2.6.3 0 .3-1.6 0-3.6l-.7-3.5 3 1.6 3.1 1.6v-3.7c0-3.5.1-3.6 3-3.1 3.4.7 3.4.8 2-2.7-.9-2.6-.9-2.6 3-2l3.9.6-.9-3.3c-.5-1.8-.8-3.4-.6-3.7.2-.2 1.8.4 3.5 1.2 3.5 1.9 4.5 2 3.6.5-.9-1.4-28.4-14.9-30.5-14.9-.9 0-2.5.9-3.6 2.1zM793.5 394.4l-10.8 7.1a44.3 44.3 0 00-9.3 7c-.5 1.2 11 20 14.9 24.2 4 4.4 9.2 2.2 13.1-5.5 2.9-5.7 5-15.3 4.1-18.4a67.5 67.5 0 00-9.3-15.7c-.4 0-1.6.6-2.7 1.3zM1229 395.7c-3 3.8-4.7 8.3-6 15.4-1 5.7-1 6.2 1.8 11.7 1.6 3.1 5.9 10.3 9.6 15.9a66.6 66.6 0 0113.4 38c.8 19.7-2.5 29.8-17.1 51.5l-9.2 13.8-1.1-17.2c-1-15.9-1.3-17.3-3.3-19-4.2-3.3-13.6 1.2-20.8 10l-4.4 5.3.2 22.2c.1 17.8-.2 23.4-1.5 28.2a74.5 74.5 0 01-26.7 38.7 73.5 73.5 0 00-6.9 5.4c0 .2 1.1-.1 2.5-.6s2.5-.8 2.5-.7l-.9 3.4c-1.2 4-.5 4.6 3.1 2.7 3.6-1.9 4.2-1.5 2.8 2.1-1.3 3.5-.7 4.1 2.5 2.7 3.9-1.8 4.5-1.5 3.3 1.9-.6 1.6-.8 3.2-.6 3.4 1.3 1.3 8-2 10.9-5.3 1.8-2 10.4-11.2 19.2-20.4 8.8-9.2 16.5-17.5 17.2-18.5 1.1-1.5 1.4-1.4 2.8.8a176 176 0 017.2 15.4c11 25.4 13.5 28 37.5 40.9 26.7 14.2 29.8 16.4 46.5 32.7 15.7 15.3 23.6 19.5 30.8 16.5 7.5-3.1 9.9-12.5 5.2-20.7-6.5-11.5-8.1-18.4-6.5-28.3 1.7-10.6 3.2-14.1 22-52.1 27.6-55.5 29.2-58.2 39.4-62.6a32.3 32.3 0 0123.4 0c8.7 2.7 13.1 2.3 16.2-1.6 2.8-3.6 3.3-6.3 2.1-11-3.2-11.8-17-17.8-67.6-29.7-4.3-1-9.1-3-12.4-5.3a166.4 166.4 0 01-19.6-15.7c-.5-.7-5.9-5.1-11.9-9.9a93.9 93.9 0 00-33.9-18.6c-11.9-3.2-17.4-6.4-33.4-19.3a42.3 42.3 0 00-8.2-5.8c-.6 0-1.1 2-1.1 4.7v4.8l-6.9-10.5c-6-9.3-7.5-11-13-14.3l-6.6-3.7c-.2 0-1.3 1.2-2.5 2.7zm87.1 74.9c3 .9 6.8 2.5 8.6 3.5 3.8 2.4 7.3 9.1 7.3 14.1a672 672 0 01-11.5 57.1 132.4 132.4 0 01-13.5 33.2c-14.7 27.8-18.1 31.9-28.8 35-2.9.8-12.7-2-17.2-4.9-4.6-3-9-11.2-9.7-18-.6-6.3.7-9.6 10.2-26 12.5-21.6 15.9-31.1 22.2-61.6 3.7-18.4 5.3-22.7 9.9-27.4 6.5-6.5 12.8-7.9 22.5-5zM764 415.2c-6.5 5.7-19.4 15-24.1 17.4a89 89 0 01-12.6 4.5c-14.8 4-25 10.6-50.3 32.4-13.7 11.7-19.2 15.1-27.6 17.1-38.4 9-53.8 14.3-61.5 21.2-8.1 7.2-8.8 16.9-1.5 21.3 3.9 2.4 5.9 2.4 13.7-.2 9.2-3 18-2.9 24.5.4 5.9 3 11.4 8.8 14.8 15.5 44.6 88.4 43.6 86.3 45.6 98.7a38.9 38.9 0 01-6.3 27.9c-6.6 12.2.7 24.7 12.6 21.5 6.5-1.7 10.3-4.4 22.7-16.4a155.5 155.5 0 0147.5-33.5c24-12.6 25.4-14.1 37-40.6 3.6-8.2 7.1-15.4 7.8-16 .9-.9 6.1 4.1 21.7 20.7 15.7 16.7 21.3 22.1 23.9 22.9 1.9.5 3.7.8 3.9.5.2-.2 0-1.8-.6-3.4-1.2-3.4-.6-3.7 3.3-1.9 3.2 1.4 3.8.8 2.5-2.7-1.4-3.6-.8-4 2.8-2.1 3.6 1.9 4.3 1.3 3.1-2.7l-.9-3.4c0-.1 1.2.2 2.6.7 3.5 1.4 3.4 1.4 3.4-2.1 0-2.9.2-3 3.1-2.4l3 .7-.7-3.8c-.6-3.4-.5-3.7 1.2-2.9l3.8 1.3c1.8.5 1.8-.3-.1-5.6-.7-1.6.6-1.5 3.7.3 3.6 2.1 4 1.9 2.9-1.7a42 42 0 01-.9-3.6c0-.2 1.7-.1 3.9.3 3.7.6 3.8.6 3.3-2l-.5-2.6-13.6.6a66 66 0 01-39.1-7.2 56.6 56.6 0 01-17.6-12.9c-7.5-7.5-8.8-9.4-16.8-25.3-4.8-9.4-8.4-17.1-8.1-17.1.4 0 7.3 3.4 15.4 7.6 16 8.3 17.9 8.6 20.6 3.4 1.8-3.6 1.9-8.9.1-15.5-2.8-10.8-5-12.8-25.5-23-5.2-2.6-11.8-6.4-14.6-8.5a69.4 69.4 0 01-26.5-45.5c-1.1-6.5-.7-25.8.6-32.8.7-3.6-1.1-3.5-5.6.5zm-36.2 55.7c5.1 2.6 9.1 6.8 11.3 11.7 1 2.3 3.4 11.7 5.4 21.1 6.2 30.3 9.4 39.1 22 60.9 9.6 16.4 10.8 19.7 10.2 26a27 27 0 01-9.6 17.8c-2 1.3-6.2 3.2-9.3 4.1-12.2 3.5-19.6-2.2-31.7-24.3a189.2 189.2 0 01-17.6-38.9 672.8 672.8 0 01-12.5-61c0-4.8 3.4-11.7 6.8-13.9 3.8-2.5 13-5.3 17.5-5.3 2.1-.1 5.5.8 7.5 1.8zM180.6 781.1a34.2 34.2 0 00-22.7 11.2c-7.6 9.6-7.3 5.8-7.7 93.2-.2 52.4.1 80.3.8 84.9a34.9 34.9 0 008.2 19.3c9.8 10.1 37.5 13.2 56 6.3 8.9-3.3 14.6-10.2 17.3-20.6 1.4-5.4 1.5-16.4 1.3-88-.4-93.7.2-87.5-9.3-97.1a25 25 0 00-11.6-7.1 92.6 92.6 0 00-32.3-2.1zm21 24.7c4.9 2.6 4.9 2.4 4.9 84.2 0 82.7.1 81.1-5.4 84.6-3.6 2.4-13.9 2.4-17.6 0-5.6-3.7-5.5-1.9-5.5-84.6 0-80.1 0-80.3 4.4-83.9 3.5-2.9 14.1-3.1 19.2-.3zM599.5 781.1a35.3 35.3 0 00-23 11.6c-7.2 9.5-7 6.3-7 97.3 0 74.3.2 82 1.7 87.1 5 16 16.3 22.3 40.3 22.3 24.6.1 36.4-7.6 40.4-26.2.8-3.7 1.1-29.3 1.1-83.2 0-53.9-.3-79.5-1.1-83.2-2.6-12.2-9.6-20.4-20.4-23.7a92.7 92.7 0 00-32-2zm20.5 24.8c5.7 4 5.5.9 5.5 84.6 0 74.4-.1 77.1-1.9 80.2a13.3 13.3 0 01-5 4.5c-4.3 1.8-12.7 1.4-16-.7-5.8-3.8-5.6-.6-5.6-84.5 0-83.3-.2-80.7 5.3-84.3a18.8 18.8 0 0117.7.2zM1036 781.2c-15.4 2.2-23.8 9.3-27.4 23.4-1.4 5.4-1.6 16.6-1.6 87.3 0 90.4 0 91.1 6.4 99.4 7.1 9.3 15.3 12.2 34.1 12.1 11.2 0 13.8-.3 19-2.4 10.2-4 14.5-8.7 18.1-19.7 2.2-6.8 3.3-41.1 1.3-41.7-.8-.2-7.1-.7-14.1-1l-12.8-.6v14.7c0 16.2-.9 21.3-4.5 24.9-2.7 2.7-9.5 3.3-13.9 1.3-5.6-2.6-5.6-1.9-5.6-87 0-83.9-.1-82.6 5.1-86.3 3-2 9.8-2.1 12.7 0 4.1 2.9 4.7 5.3 5.2 22.4l.5 16.4 9.5-.2c5.2-.2 11.5-.5 13.8-.9l4.4-.6-.4-18.6c-.5-21.5-1.5-25.3-8.4-33-5.2-5.8-11.1-8.5-21.7-10a52.2 52.2 0 00-19.7.1zM1161.6 781.6c-15.5 2.4-23.6 9.3-27.7 23.9-1.2 4.1-1.4 19.7-1.4 87.5v82.5l2.3 6.5a26.3 26.3 0 0014.5 16.9 62.3 62.3 0 0030.7 4.8c20.7-1.3 30.7-7.7 35.7-22.7 1.7-5.1 1.8-10.9 1.8-89 0-79.2-.1-83.8-1.9-89-4.7-13.8-12.9-19.7-30.6-22a64.2 64.2 0 00-23.4.6zm22.4 24.6a15 15 0 014.6 5.8c1.6 4.5 2 153.4.4 159.2a15 15 0 01-4.1 6.2c-4.2 3.6-13.9 3.7-19 .3-6-4-5.9-3.7-5.7-88.2.3-71.2.4-76.2 2.1-79.3 2.2-4.1 6.6-6.1 13.3-6.2 3.7 0 6 .6 8.4 2.2zM1824.9 780.9c-14.4 2-23.6 8.5-27.9 19.7-2.1 5.2-2.4 8.1-2.8 23.4-.5 20.3.3 25 5.9 36.5 2.9 6.1 17.3 26.9 25.6 37 5.8 7.1 19.8 27.3 21.5 31.1 1.8 4.1 2.2 7.3 2.6 19.1.6 19.7-.1 24.8-4.3 29-3 3-3.8 3.3-9.4 3.3-12.8 0-15.1-3.6-15.1-23v-13h-4.8c-2.7 0-9 .3-14 .6l-9.2.7v13.8c0 15.7 1.1 22.5 4.7 28.9 5.6 9.9 15.4 14.7 31.8 15.7 17.5 1.1 32.4-2.7 39.2-9.8 7.2-7.6 9.3-17.3 9.3-42.4 0-28.1-2.4-34.7-20.5-58.6l-9.5-12.8-3.2-4.4c-8.6-11.1-18.4-25-20.2-28.7-1.7-3.7-2.1-6.9-2.4-17.5-.5-16.2.5-20.5 5.4-23.5 2.8-1.8 4.6-2.1 9-1.8 9.8.8 12.4 6 12.4 25v10.1l13.3-.8c7.2-.4 13.6-.9 14.1-1.2 1.4-.9-.1-28.1-1.8-34a29.3 29.3 0 00-22.6-21.2 108 108 0 00-27.1-1.2zM285.7 783.6c-.4.4-.7 48.6-.7 107.1V997h69v-22h-41l-.2-95.8-.3-95.7-13.1-.3c-7.1-.1-13.3.1-13.7.4zM396 890v107.1l27.8-.3c30.9-.4 33.5-.9 42.4-7.6 5.5-4.1 9.1-11.3 10.7-21.2 1.5-8.8 1.5-147.2 0-156-1.6-9.9-5.2-17.1-10.7-21.2-8.8-6.7-11.5-7.2-42.4-7.6l-27.8-.4V890zm48.8-83c5.3 3.5 5.2 1.8 5.2 82.8 0 50.8-.3 75.9-1.1 78-1.8 5.1-5.1 6.6-16.1 7l-9.8.4V804.8l9.8.4c6.1.2 10.5.9 12 1.8zM723.6 783.8c-.4.7-30.6 210.3-30.6 212.5 0 .4 6.7.7 15 .7h14.9l.5-3.3c.3-1.7 1.3-11 2.2-20.5l1.7-17.2H741c13.5 0 13.8.1 14.3 2.2a465 465 0 012.3 20.5l1.7 18.3H790l-.5-2.3c-.3-1.2-7-48.3-15-104.7a36871 36871 0 00-15-104.8c-.5-2.2-.7-2.2-18-2.2-9.5 0-17.6.4-17.9.8zM748.9 895a1765 1765 0 003.7 34.2l.6 3.8h-11.6c-10.3 0-11.6-.2-11.6-1.7 0-1.6 9.1-91.3 10.7-104.8.6-5.3.9-3.5 2.9 16l5.3 52.5zM831 890v107h27v-77.2l4.3-11.4A77.2 77.2 0 01867 897c.3 0 6.8 22.4 14.6 49.8l14.1 49.7 14.7.3c8 .1 14.6-.1 14.6-.5.1-.5-9-28.8-20.1-63.1-17.2-52.9-20.1-62.5-19.1-64.5 3.2-6.4 37.2-83.8 37.2-84.7 0-1.5-27.7-1.4-28.6.1-.4.7-8.7 20.8-18.5 44.8l-17.8 43.6-.1-44.8V783h-27v107zM1270 892v109h28v-93h9.1c11.1 0 14.6 1.6 16.9 7.6.6 1.6 1.3 18.6 1.6 41.8.3 21.5.7 40.1 1 41.3.4 2.3.7 2.3 14.4 2.3h14l-.5-12.3-1-39.5c-.3-15-1-29.6-1.5-32.5a32.4 32.4 0 00-10-18.6l-3.8-2.8 4.8-4.5c9.6-9 11-15.2 11-49.4 0-32.6-1.4-39.8-9.4-48.2-7.9-8.4-16.3-10.2-49.3-10.2H1270v109zm50.6-83.9a9.6 9.6 0 014.4 5.7c.6 2.1 1 15.8 1 31.9 0 23.4-.3 28.9-1.6 32.2-2.2 5.6-5.9 7.1-17.3 7.1h-9.1v-79h9.6c8 0 10.2.4 13 2.1zM1405 892v109h28v-5.3c0-7.1-1.8-90-2.4-112.2l-.6-18 4.3 15.5c2.4 8.5 11 39 19.3 67.7l14.9 52.3h24.5l-.2-108.8-.3-108.7-13.7-.3-13.8-.3v11.3c0 13.6 1.7 93.9 2.4 112.8l.5 13.5-4.9-18c-2.7-9.9-11.4-40.7-19.4-68.5l-14.4-50.5-12.1-.3-12.1-.3V892zM1546.7 783.7c-.4.3-.7 49.4-.7 109V1001h73.1l-.3-11.3-.3-11.2-22.2-.3-22.3-.2v-79h38v-22h-38v-71l21.8-.2 21.7-.3v-22l-35.1-.3c-19.3-.1-35.3.1-35.7.5zM1664.8 783.6c-.5.4-.8 49.5-.8 109.1V1001h28v-93h9c10.5 0 14.1 1.4 16.6 6.3 1.5 2.7 1.8 8.8 2.5 42.7l.8 41.7c.1 2.3.3 2.3 14.1 2.3h14l-.6-32.8c-.8-49-1.9-57.5-8.1-65.9-1.3-1.8-3.7-4-5.3-5-1.7-.9-3-2-3-2.3.1-.3 1.8-1.7 4-3.2 4.5-3.1 8.6-9.7 10.6-17 2.1-7.9 2-59.1-.1-67.3-3-11.6-8.8-18-20-22-4.3-1.6-9.2-1.9-33-2.3-15.4-.2-28.3 0-28.7.4zm49.3 24c5.5 2.8 5.9 5.3 5.9 37.7a239 239 0 01-1.1 32.5c-1.9 5.4-6.2 7.2-17.3 7.2h-9.6v-79h9.5a30 30 0 0112.6 1.6zM747.5 1062.5a14.4 14.4 0 00-9.5 10.6c-.7 2.6-1 18.1-.8 46.3l.3 42.2 2.5 3.7c3.3 4.9 9.3 7.2 18.5 7.1 11.9 0 18.3-3.5 20.4-11.1.7-2.4 1.1-19.5 1.1-45.3 0-38.1-.2-41.8-1.9-45.5-2.2-4.7-4.4-6.8-9-8.4a49.3 49.3 0 00-21.6.4zm16.1 12.6c1.8 2 1.9 4.2 1.9 42.1 0 38.4-.1 40-1.9 41.4-3 2.1-9.3 1.8-10.6-.5-.6-1.3-1-16.3-1-42v-40l2.2-1.5c3.1-2.2 7.1-2 9.4.5zM815.7 1062.4c-5.2 1.9-8.2 4.9-9.6 9.5-.7 2.6-1.1 17.1-1.1 45.7 0 39.9.1 42 2 45.8a18 18 0 004.5 5.9 34 34 0 0018.9 3.2c8.1-1.1 13-3.9 15.2-8.7 1.8-4 1.9-7.2 1.9-47.8 0-48.7.2-47.6-7.2-52.1a39.4 39.4 0 00-24.6-1.5zm15.1 12.2l2.2 1.5v40.8c0 45.7.4 43.5-7.2 42.9-6.8-.5-6.8-.1-6.8-43.1 0-37.5.3-40.8 3.4-42.9 1.9-1.3 6-.9 8.4.8zM1047 1062.1c-4.6 1.4-6.9 3.5-9.1 8.4-1.7 3.7-1.9 7.4-1.9 46.2 0 46.4.1 47.4 6 52.1 6 4.7 22.8 5.2 29.2.8 1.8-1.1 4.1-3.7 5.2-5.6 2-3.4 2.1-4.9 2.1-47.6v-44.1l-2.8-4a18 18 0 00-5.5-5.3 59.7 59.7 0 00-23.2-.9zm15 12.9c1.9 1.9 2 3.3 2 41.7-.1 31.5-.3 40.2-1.4 41.5-.9 1.2-2.7 1.8-5.4 1.8-7.3 0-7.2.8-7.2-43.1 0-37.6.1-38.7 2.1-41.3 2.5-3.2 7-3.5 9.9-.6zM1359.5 1062.4a14.5 14.5 0 00-9.4 10.4c-1.5 5.3-1.5 83.8 0 88.3 4.1 12.3 16.6 15.6 25.2 6.7l3.7-3.9 1.5 3.5c1.4 3.4 1.8 3.6 6 3.6h4.5v-59h-21v12h7v13.9c0 18.2-1.5 22.1-8.3 22.1-5.1 0-5.2-.7-5.5-38.4-.4-37.5 0-44.7 2.5-47.2 1.6-1.5 7.6-1.5 9.2.1.3.4.8 4.7.9 9.6l.4 8.9h15.1l-.5-9.8c-.6-11.7-2.3-16.1-7.4-19.2-4.8-3-17.7-3.8-23.9-1.6zM637 1063.9a18312 18312 0 008.5 62.6l4.8 35 1.3 9 8.6.3 8.7.3.5-3.3c.5-3 6-51.3 6.9-59.8.3-3.2.4-3.3.9-1 .4 1.4 2.1 16.2 4 33l3.3 30.5 8.7.3 8.7.3.5-3.3c.7-3.8 3-20.2 8.1-57.3l5-36.3a285 285 0 001.5-11.3c0-.6-3-.9-7.7-.7l-7.8.3-.7 5c-.8 5.5-6.6 63.5-7 70-.2 2.5-.8-.1-1.6-7-4-34.3-7.3-61.5-7.8-64.8l-.6-3.7h-6.9c-6.3 0-6.9.2-7.4 2.2-.3 1.8-7.5 62.3-8.7 74.3-.2 1.6-.7-1.1-1.1-6l-4-39.5-3.2-30.5-7.8-.3c-7.2-.3-7.7-.1-7.7 1.7zM873.8 1062.6c-.5.4-.8 25-.8 54.6v53.9l15.9-.3c17.7-.3 19.1-.8 23.9-7.8l2.3-3.4-.3-43.7c-.3-42.4-.4-43.8-2.4-46.6-4-5.4-8.4-6.8-23.9-7.1a78 78 0 00-14.7.4zm25.6 13.6c1.4 1.9 1.6 7.5 1.6 40.7 0 44 .4 42.1-8.2 42.1H888v-85h4.9c4 0 5.3.4 6.5 2.2zM935.6 1064.7c.5 2.8 5 35.7 11.5 82.5l3.2 23.8h8.9c5.5 0 8.8-.4 8.8-1l3-26.7c1.7-14.1 3.3-29.5 3.7-34.2.7-8.4.7-7.9 4.4 24.4 2.1 18.1 3.8 34 3.8 35.2.1 2.2.5 2.3 9 2.3h8.9l1.1-7.8a9680 9680 0 0013.3-97.2l.3-3.5-7.7-.3-7.7-.3-.5 4.3c-1.3 9.7-6.6 63.9-6.6 67.2 0 2-.3 3.6-.8 3.6-.4 0-1.7-9.1-3-20.3-3.5-31.1-6.1-52-6.7-53.5-.3-.9-2.4-1.2-7.2-1l-6.8.3-1.6 12.5-4.5 37.7c-1.6 13.9-3 25-3.2 24.8-.2-.2-1.9-15.8-3.8-34.7l-3.9-37.6-.6-3.2h-15.8l.5 2.7zM1104.8 1062.6c-.5.4-.8 25-.8 54.6v53.8h15v-46h4.3c8.2 0 8.2-.1 8.5 24.4l.3 21.6h15.2l-.7-20.3c-.8-22.4-1.4-26-5-29.8l-2.5-2.7 2.4-2.2c4.1-3.8 5-8.3 5-24.5 0-18.5-1.3-22.9-7.8-26.6-3.8-2.1-5.6-2.4-18.7-2.7a83 83 0 00-15.2.4zm25 13c2.1 1.5 2.2 2.1 2.2 17.6 0 19-.3 19.8-8.2 19.8h-4.8v-39h4.3c2.3 0 5.3.7 6.5 1.6zM1171.7 1062.7c-.4.3-.7 24.9-.7 54.5v53.8h15v-19.8c0-16 .3-20.6 1.7-24.5.9-2.6 2-4.7 2.3-4.7.4 0 1.4 2.8 2.4 6.2l6.8 24.5 5.2 18.3h7.8c4.3 0 7.8-.1 7.8-.3l-10.3-31.7-10.3-31.5 1.9-4.5 5.7-13c9.2-20.6 12-27 12-27.5 0-.3-3.4-.5-7.6-.3l-7.6.3-7 17-8.8 21.5-1.9 4.5-.1-21.8V1062h-6.8c-3.8 0-7.2.3-7.5.7zM1239 1116.5v54.5h14v-109h-14v54.5zM1279.7 1062.7c-.4.3-.7 24.9-.7 54.5v53.8h15l-.5-31.3-.5-31.2 8 27.5 9.1 31.2 1 3.8h12.9v-109.1l-7.2.3-7.3.3.3 28c.2 15.4.5 30.2.7 33 .7 7.5 1.5 10-17.7-58.3-.9-3.1-1-3.2-6.7-3.2-3.2 0-6.1.3-6.4.7zM816 1223.1c0 .6 2.8 5.9 6.2 11.7l8.6 15.2 4.7 8 4.7 8c3.4 6.1 17 29.9 22.1 38.5l8.4 14.5a901 901 0 007 12c.3.8 2.5 4.6 4.8 8.5 2.4 3.8 8 13.5 12.5 21.5l13.8 24 8 14c1.4 2.5 4.2 7.4 6.4 10.9a55 55 0 013.8 6.8 335 335 0 0110.2 17.3c3.2 5.8 8.3 14.6 27.6 48a4633.7 4633.7 0 0111 19l6.6 11.5c2.1 3.9 4.9 8.6 6.1 10.5 1.2 1.9 3.5 5.7 5 8.5l5 9 8.8 15.3 6.4 11.3 3-4.8a15666.9 15666.9 0 0065.8-113.8l20.6-35.5a62775 62775 0 0057.7-100l10.7-18.5 11-19a608.3 608.3 0 0112.9-22.5c1.3-2.5 5.6-9.9 9.5-16.5 3.9-6.6 7.1-12.6 7.1-13.3 0-.9-4.6-1.2-19.7-1.2h-19.8l-4.4 7.8-7.4 13.2a377.8 377.8 0 01-9.7 16.3 55 55 0 01-3.8 6.8 2535.2 2535.2 0 01-16.4 28.4l-15.3 26.5a4617.6 4617.6 0 01-19.8 34.5c-1.7 2.7-6.2 10.6-10.2 17.5l-13 22.5-7.5 13-18.6 32.3-7.4 12.7-10.2 17.5-11.3 19.7a20.7 20.7 0 01-3.4 5.3c-.3 0-1.4-1.5-2.5-3.3a4086.7 4086.7 0 01-23.4-40.7l-11.9-20.3-9.3-16.2c0-.2-1.4-2.8-3.1-5.7l-5.1-8.6a1877 1877 0 00-21.8-37.8c0-.3-.8-1.8-1.8-3.2a5947 5947 0 00-32.2-55.7l-5.5-9.5-5.5-9.5-13-22.5-13.8-24a341 341 0 01-6.2-10.8l-3.5-6.2h-19.7c-13.6 0-19.8.3-19.8 1.1z"/></svg>